<?xml version="1.0" standalone="no"?> <!DOCTYPE svg PUBLIC "-//W3C//DTD SVG 1.0//EN" "http://www.w3.org/TR/2001/REC-SVG-20010904/DTD/svg10.dtd" > <svg xmlns="http://www.w3.org/2000/svg" width="100%" height="100%">
<defs >
<font id="Europa" horiz-adv-x="535" ><font-face
    font-family="Europa"
    units-per-em="1000"
    panose-1="2 0 0 0 0 0 0 0 0 0"
    ascent="1033"
    descent="-276"
    alphabetic="0" />
<missing-glyph horiz-adv-x="294" />
<glyph unicode=" " glyph-name="space" horiz-adv-x="294" />
<glyph unicode="!" glyph-name="exclam" horiz-adv-x="306" d="M74 34T74 67T97 123T153 146T209 123T232 67T209 11T153 -12T97 11ZM210 200H96L91 700H215L210 200Z" />
<glyph unicode="&quot;" glyph-name="quotedbl" horiz-adv-x="400" d="M234 700H340V452H234V700ZM60 700H166V452H60V700Z" />
<glyph unicode="#" glyph-name="numbersign" horiz-adv-x="634" d="M258 298H367L384 418H275L258 298ZM69 506H198L228 717L315 705L287 506H396L426 717L513 705L485 506H602V418H473L456 298H572V210H444L412 -17L324 -5L354 210H246L214 -17L126 -5L156 210H39V298H169L186
418H69V506Z" />
<glyph unicode="$" glyph-name="dollar" horiz-adv-x="580" d="M194 512Q194 482 213 462T271 425V596Q236 588 215 566T194 512ZM420 186Q420 219 398 240T334 278V103Q367 109 393 128T420 186ZM271 -11Q231 -8 196 6T130 39T77 82T41 129L134 203Q143 187 157
171T188 141T227 117T271 102V301Q237 313 202 331T138 374T91 432T72 510Q72 546 85 580T124 641T187 686T271 710V794H334V710Q364 707 392 697T446 673T491 642T524 608L434 533Q420 552 393 570T334 596V400Q337 398 340 398T345 396Q382 382 417 365T481 324T525
266T542 186Q542 139 525 105T480 46T413 8T334 -10V-94H271V-11Z" />
<glyph unicode="%" glyph-name="percent" horiz-adv-x="712" d="M528 65Q563 65 586 88T609 147T586 205T528 229Q492 229 469 206T446 147T469 89T528 65ZM495 306T528 306T590 294T642 260T677 209T690 147T677 85T642 35T591 1T528 -12T466 0T414 34T379 85T366
147T379 209T414 259T465 293ZM184 471Q219 471 242 494T265 553T242 611T184 635Q148 635 125 612T102 553T125 495T184 471ZM151 712T184 712T246 700T298 666T333 615T346 553T333 491T298 441T247 407T184 394T122 406T70 440T35 491T22 553T35 615T70 665T121
699ZM560 731L617 692L146 -32L89 7L560 731Z" />
<glyph unicode="&amp;" glyph-name="ampersand" horiz-adv-x="695" d="M210 533Q210 507 228 487T282 433Q307 454 322 469T346 496T356 515T359 532Q359 565 335 583T284 602Q256 602 233 583T210 533ZM289 98Q332 98 371 115T434 157L275 296L223 252Q204 234
193 222T178 200T174 179Q174 159 184 144T210 119T246 103T289 98ZM622 384Q622 305 609 248T581 170L695 70L625 -12L518 83Q481 41 421 15T289 -12Q236 -12 193 3T119 45T71 105T54 177Q54 200 61 222T84 268T127 315T192 369Q137 419 116 457T94 535Q94 570
108 602T147 658T207 697T285 712T362 698T423 659T462 602T476 532Q476 511 471 493T453 455T418 413T363 362L492 248Q496 253 498 267T503 300T506 341T507 384H622Z" />
<glyph unicode="&apos;" glyph-name="quotesingle" horiz-adv-x="186" d="M40 700H146V454H40V700Z" />
<glyph unicode="(" glyph-name="parenleft" horiz-adv-x="312" d="M166 295Q166 230 177 171T207 59T249 -36T294 -110L196 -170Q170 -134 144 -84T96 25T62 153T48 295Q48 367 61 434T95 561T142 671T196 759L294 700Q272 669 249 626T208 531T178 419T166 295Z" />
<glyph unicode=")" glyph-name="parenright" horiz-adv-x="312" d="M146 295Q146 359 135 419T105 531T63 626T18 700L116 759Q143 721 169 671T217 562T251 435T264 295Q264 221 251 153T216 26T169 -84T116 -170L18 -110Q40 -79 63 -36T104 59T134 170T146 295Z" />
<glyph unicode="*" glyph-name="asterisk" horiz-adv-x="398" d="M125 348L56 397L133 502L6 542L33 621L157 580V712H241V580L365 621L392 542L265 502L342 397L273 348L199 453L125 348Z" />
<glyph unicode="+" glyph-name="plus" horiz-adv-x="520" d="M497 190H320V0H200V190H23V302H200V486H320V302H497V190Z" />
<glyph unicode="," glyph-name="comma" horiz-adv-x="241" d="M199 62L112 -171L20 -139L99 97L199 62Z" />
<glyph unicode="-" glyph-name="hyphen" horiz-adv-x="333" d="M33 304H300V190H33V304Z" />
<glyph unicode="." glyph-name="period" horiz-adv-x="262" d="M52 34T52 67T75 123T131 146T187 123T210 67T187 11T131 -12T75 11Z" />
<glyph unicode="/" glyph-name="slash" horiz-adv-x="520" d="M102 -141L6 -98L406 800L502 757L102 -141Z" />
<glyph unicode="0" glyph-name="zero" horiz-adv-x="606" d="M268 100T304 100T367 120T411 174T437 253T446 350T438 446T412 526T367 580T304 600T241 580T196 526T169 447T160 350T169 254T196 174T241 120ZM237 712T304 712T420 682T501 602T550 487T566 350T550
214T502 98T420 18T304 -12T188 18T105 98T56 213T40 350T56 486T105 602T187 682Z" />
<glyph unicode="1" glyph-name="one" horiz-adv-x="444" d="M229 700H328V0H208V540L85 442L16 530L229 700Z" />
<glyph unicode="2" glyph-name="two" horiz-adv-x="555" d="M297 326Q306 338 320 354T347 391T369 436T378 489Q378 535 351 567T272 600Q224 600 192 571T149 498L42 537Q52 569 71 600T118 656T186 696T277 712Q332 712 373 695T442 647T484 578T498 495Q498
463 491 436T475 386T455 348T437 322L276 114H501V0H40L297 326Z" />
<glyph unicode="3" glyph-name="three" horiz-adv-x="570" d="M386 498Q386 545 357 572T281 600Q257 600 238 593T204 573T179 546T162 515L58 564Q69 590 88 616T134 664T198 698T282 712Q330 712 371 697T442 655T489 590T507 507Q507 475 499 451T479 409T451
377T421 355Q441 349 459 336T492 303T515 257T524 197Q524 148 506 110T454 44T377 3T282 -12T191 2T120 38T69 90T37 150L135 207Q142 188 154 169T184 135T226 110T284 100Q339 100 371 126T404 198Q404 224 393 242T364 271T324 288T277 294H227V404H265Q320
404 353 426T386 498Z" />
<glyph unicode="4" glyph-name="four" horiz-adv-x="593" d="M368 264V535L192 264H368ZM352 700H486V264H563V152H486V0H366V152H-4L352 700Z" />
<glyph unicode="5" glyph-name="five" horiz-adv-x="585" d="M542 233Q542 170 520 124T463 47T382 3T291 -12Q244 -12 206 1T137 37T84 89T48 150L148 207Q156 186 169 167T201 133T242 109T294 100Q324 100 347 110T387 137T412 179T421 231Q421 287 386 323T276
360Q217 360 168 339T84 295V700H534V586H204V454Q222 461 247 465T302 470Q349 470 392 456T469 412T522 338T542 233Z" />
<glyph unicode="6" glyph-name="six" horiz-adv-x="564" d="M310 350T284 350T236 341T196 316T170 277T160 225Q160 196 169 173T196 134T235 109T284 100T332 109T372 134T398 173T408 225Q408 253 399 276T372 316T333 341ZM268 459Q275 461 281 461T297 462Q348
462 391 442T464 388T512 313T529 225T512 138T463 62T386 9T284 -12T183 8T105 61T56 136T39 224Q39 268 52 306T78 368L102 408L152 491L220 604L298 732L398 670L268 459Z" />
<glyph unicode="7" glyph-name="seven" horiz-adv-x="526" d="M36 700H536L161 -24L59 29L347 586H36V700Z" />
<glyph unicode="8" glyph-name="eight" horiz-adv-x="576" d="M389 466T389 509T360 577T288 602T217 577T187 509T216 441T288 416T359 441ZM258 98T288 98T340 107T377 131T399 167T407 208T400 248T377 283T340 307T288 316T236 307T199 283T177 249T169 208T176
167T199 132T236 107ZM233 712T288 712T384 695T452 650T494 586T508 513Q508 486 501 464T483 425T458 395T430 372Q446 364 463 351T495 317T519 269T528 207Q528 163 512 123T465 53T390 6T288 -12T187 5T111 53T64 123T48 207Q48 241 57 268T80 316T112 350T146
372Q132 381 118 394T93 425T75 464T68 513Q68 550 82 586T123 650T192 695Z" />
<glyph unicode="9" glyph-name="nine" horiz-adv-x="564" d="M254 350T280 350T328 359T368 384T394 423T404 475Q404 503 395 526T368 566T329 591T280 600T232 591T192 566T166 527T156 475Q156 446 165 423T192 384T231 359ZM296 241Q289 239 283 239T267 238Q216
238 173 258T100 312T52 387T35 475T52 562T101 638T178 691T280 712T381 692T459 638T508 563T525 477Q525 434 512 395T485 332L460 290L410 206L342 95L268 -28L168 34L296 241Z" />
<glyph unicode=":" glyph-name="colon" horiz-adv-x="274" d="M58 374T58 407T81 463T137 486T193 463T216 407T193 351T137 328T81 351ZM58 34T58 67T81 123T137 146T193 123T216 67T193 11T137 -12T81 11Z" />
<glyph unicode=";" glyph-name="semicolon" horiz-adv-x="243" d="M42 406Q42 439 65 462T121 486Q154 486 177 463T201 406Q201 374 178 351T121 327Q89 327 66 350T42 406ZM199 62L112 -171L20 -139L99 97L199 62Z" />
<glyph unicode="&lt;" glyph-name="less" horiz-adv-x="520" d="M18 321L480 518V395L177 271L480 146V23L18 221V321Z" />
<glyph unicode="=" glyph-name="equal" horiz-adv-x="520" d="M45 412H475V302H45V412ZM45 226H475V116H45V226Z" />
<glyph unicode="&gt;" glyph-name="greater" horiz-adv-x="520" d="M506 221L44 23V146L347 271L44 395V518L506 321V221Z" />
<glyph unicode="?" glyph-name="question" horiz-adv-x="489" d="M163 34T163 67T186 123T242 146T298 123T321 67T298 11T242 -12T186 11ZM329 507Q329 549 301 573T235 598Q214 598 196 590T163 569T137 539T118 502L16 549Q26 579 45 608T91 661T154 698T235
712T319 697T387 654T432 590T449 508Q449 476 441 452T417 406T382 366T338 325L318 306Q310 299 307 293T302 278T301 256V205H182V279Q182 303 187 319T202 350T231 378L272 414Q295 434 312 454T329 507Z" />
<glyph unicode="@" glyph-name="at" horiz-adv-x="799" d="M399 232Q434 232 454 245T485 273V302Q474 313 453 321T402 330Q366 330 348 317T329 282Q329 260 347 246T399 232ZM602 35Q571 18 523 3T414 -12Q337 -12 271 16T155 94T77 209T48 350T76 491T154
606T269 683T413 712Q487 712 549 685T656 611T726 498T751 355Q751 294 736 255T699 193T651 161T603 152Q572 152 542 167T501 218Q483 190 451 171T378 152Q351 152 326 161T282 186T251 226T239 279T251 331T283 371T329 397T382 406Q411 406 439 397T485 372V389Q485
409 478 423T458 447T431 461T400 466Q378 466 351 458T297 429L257 501Q283 519 321 533T406 548Q442 548 472 538T523 509T557 463T570 403V282Q570 257 578 244T609 230Q613 230 622 232T640 245T657 281T664 349Q664 418 645 470T592 557T512 610T413 628Q353
628 303 607T215 548T156 460T135 350Q135 292 156 241T214 153T302 94T415 72Q466 72 505 84T567 110L602 35Z" />
<glyph unicode="A" glyph-name="A" horiz-adv-x="678" d="M234 276H444L339 549L234 276ZM278 700H400L672 0H551L487 166H191L127 0H6L278 700Z" />
<glyph unicode="B" glyph-name="B" horiz-adv-x="590" d="M297 414Q347 414 374 433T402 498Q402 546 372 566T297 586H194V414H297ZM322 114Q372 114 405 135T438 207T405 278T322 300H194V114H322ZM74 700H301Q344 700 384 689T455 655T505 595T524 509Q524
473 515 448T494 407T469 383T451 371Q455 370 472 362T509 335T544 285T560 208Q560 161 542 123T493 57T418 15T326 0H74V700Z" />
<glyph unicode="C" glyph-name="C" horiz-adv-x="676" d="M390 100Q453 100 501 126T578 186L658 107Q639 84 612 63T551 25T476 -2T389 -12Q313 -12 248 15T136 91T61 206T34 350T61 494T135 608T248 684T388 712Q435 712 475 702T548 676T606 641T648 602L567
523Q542 551 497 575T389 600Q337 600 294 580T221 526T173 446T156 350T173 254T221 175T295 120T390 100Z" />
<glyph unicode="D" glyph-name="D" horiz-adv-x="680" d="M302 114Q353 114 394 133T464 184T508 259T524 350T509 441T464 516T394 567T302 586H194V114H302ZM300 700Q376 700 440 674T549 601T620 490T646 350T621 210T550 100T440 27T300 0H74V700H300Z" />
<glyph unicode="E" glyph-name="E" horiz-adv-x="546" d="M194 416H474V302H194V114H504V0H74V700H498V586H194V416Z" />
<glyph unicode="F" glyph-name="F" horiz-adv-x="527" d="M194 415H469V301H194V0H74V700H489V586H194V415Z" />
<glyph unicode="G" glyph-name="G" horiz-adv-x="713" d="M407 100Q440 100 479 108T543 134V282H384V394H661V76Q616 36 548 12T405 -12Q326 -12 259 15T141 91T63 206T34 351Q34 428 62 494T138 608T253 684T397 712Q441 712 480 703T552 680T611 646T656 607L574
527Q548 556 503 578T399 600Q345 600 301 580T224 526T174 447T156 351Q156 300 174 255T226 175T305 120T407 100Z" />
<glyph unicode="H" glyph-name="H" horiz-adv-x="687" d="M493 700H613V0H493V301H194V0H74V700H194V415H493V700Z" />
<glyph unicode="I" glyph-name="I" horiz-adv-x="296" d="M88 700H208V0H88V700Z" />
<glyph unicode="J" glyph-name="J" horiz-adv-x="521" d="M327 700H447V220Q447 165 430 122T383 49T310 4T216 -12Q173 -12 140 -2T80 25T35 63T3 105L91 179Q115 142 144 122T215 102Q243 102 264 111T299 136T320 172T327 216V700Z" />
<glyph unicode="K" glyph-name="K" horiz-adv-x="628" d="M194 386L444 700H594L320 356L628 0H469L194 316V0H74V700H194V386Z" />
<glyph unicode="L" glyph-name="L" horiz-adv-x="500" d="M74 700H194V114H492V0H74V700Z" />
<glyph unicode="M" glyph-name="M" horiz-adv-x="826" d="M185 700L413 348L641 700H752V0H632V470L413 137L194 470V0H74V700H185Z" />
<glyph unicode="N" glyph-name="N" horiz-adv-x="726" d="M182 700L532 218V700H652V0H544L194 481V0H74V700H182Z" />
<glyph unicode="O" glyph-name="O" horiz-adv-x="776" d="M335 102T388 102T484 122T557 175T603 254T620 350T604 446T557 524T484 578T388 598T292 578T219 525T173 446T156 350T172 254T219 176T292 122ZM388 712Q464 712 529 685T641 609T715 494T742 350T716
206T642 92T529 16T388 -12Q311 -12 247 15T135 91T61 206T34 350T60 494T134 608T246 684T388 712Z" />
<glyph unicode="P" glyph-name="P" horiz-adv-x="566" d="M74 700H312Q364 700 407 683T480 636T527 565T544 476T528 387T481 316T407 269T312 252H194V0H74V700ZM297 366Q359 366 390 396T422 476T391 556T297 586H194V366H297Z" />
<glyph unicode="Q" glyph-name="Q" horiz-adv-x="791" d="M464 327L588 219Q620 277 620 349Q620 400 604 445T557 524T483 578T388 598Q335 598 293 578T220 525T173 446T156 350T172 254T219 176T292 122T388 102Q422 102 452 110T508 134L387 240L464 327ZM388
712Q464 712 529 685T641 609T715 494T742 350Q742 290 726 237T680 139L779 54L702 -34L599 55Q555 23 502 6T388 -12Q311 -12 247 15T135 91T61 206T34 350T60 494T134 608T246 684T388 712Z" />
<glyph unicode="R" glyph-name="R" horiz-adv-x="583" d="M289 378Q347 378 380 404T414 482T381 560T289 586H194V378H289ZM74 700H304Q356 700 399 684T472 639T519 570T536 480Q536 403 496 347T380 272L555 0H415L249 264H194V0H74V700Z" />
<glyph unicode="S" glyph-name="S" horiz-adv-x="595" d="M424 187Q424 209 415 224T388 251T348 272T296 292Q258 306 219 324T149 367T97 427T77 508Q77 548 93 585T138 650T210 695T304 712Q345 712 380 702T444 676T495 640T534 601L451 519Q439 534 424 548T390
573T350 591T305 598Q260 598 230 574T199 512Q199 488 212 471T246 442T295 419L350 398Q389 383 424 366T487 324T530 267T546 189Q546 139 527 101T474 38T398 1T307 -12Q257 -12 217 0T144 33T87 79T46 131L136 207Q148 188 164 170T202 136T249 112T307 102Q328
102 348 106T386 121T413 147T424 187Z" />
<glyph unicode="T" glyph-name="T" horiz-adv-x="534" d="M207 586H14V700H520V586H327V0H207V586Z" />
<glyph unicode="U" glyph-name="U" horiz-adv-x="688" d="M494 700H614V254Q614 196 595 148T541 64T456 8T344 -12T232 8T147 63T93 147T74 254V700H194V269Q194 194 231 148T344 102T456 148T494 269V700Z" />
<glyph unicode="V" glyph-name="V" horiz-adv-x="630" d="M315 -24L2 700H133L319 251L503 700H628L315 -24Z" />
<glyph unicode="W" glyph-name="W" horiz-adv-x="983" d="M703 -24L493 501L280 -24L4 700H140L288 280L447 700H546L702 280L854 700H979L703 -24Z" />
<glyph unicode="X" glyph-name="X" horiz-adv-x="612" d="M300 264L147 0H12L238 362L26 700H168L311 458L452 700H584L372 362L600 0H457L300 264Z" />
<glyph unicode="Y" glyph-name="Y" horiz-adv-x="614" d="M367 0H247V276L8 700H140L311 387L482 700H606L367 276V0Z" />
<glyph unicode="Z" glyph-name="Z" horiz-adv-x="597" d="M583 700L219 114H563V0H14L380 586H48V700H583Z" />
<glyph unicode="[" glyph-name="bracketleft" horiz-adv-x="330" d="M184 -134H298V-230H74V756H298V660H184V-134Z" />
<glyph unicode="\" glyph-name="backslash" horiz-adv-x="520" d="M18 757L114 800L514 -98L418 -141L18 757Z" />
<glyph unicode="]" glyph-name="bracketright" horiz-adv-x="330" d="M146 660H32V756H256V-230H32V-134H146V660Z" />
<glyph unicode="^" glyph-name="asciicircum" horiz-adv-x="537" d="M216 756H321L527 350H402L269 624L134 350H10L216 756Z" />
<glyph unicode="_" glyph-name="underscore" horiz-adv-x="500" d="M42 -116H458V-230H42V-116Z" />
<glyph unicode="`" glyph-name="grave" horiz-adv-x="272" d="M81 754L252 580L175 507L0 675L81 754Z" />
<glyph unicode="a" glyph-name="a" horiz-adv-x="536" d="M263 486Q362 486 419 438T476 309V0H365V60Q342 29 302 9T211 -12Q177 -12 146 -2T90 29T52 79T38 144T52 209T92 260T152 292T227 304Q260 304 295 296T356 270V297Q356 320 346 336T321 361T288 375T252
379Q228 379 191 371T112 344L73 443Q109 460 158 473T263 486ZM244 88Q286 88 313 105T356 143V192Q333 204 304 210T252 216Q236 216 220 213T191 202T169 181T160 149T168 118T188 100T216 91T244 88Z" />
<glyph unicode="b" glyph-name="b" horiz-adv-x="587" d="M194 166Q209 140 237 120T309 100Q368 100 402 139T437 237T403 335T309 374Q265 374 237 354T194 308V166ZM74 756H194V424Q212 447 245 466T329 486Q374 486 416 468T489 416T540 338T559 237Q559 183
540 137T490 58T417 7T329 -12Q275 -12 239 10T185 62V0H74V756Z" />
<glyph unicode="c" glyph-name="c" horiz-adv-x="497" d="M284 100Q326 100 356 118T400 158L479 78Q467 63 448 47T404 18T349 -3T283 -12Q230 -12 184 7T103 60T48 139T28 237T48 334T102 414T183 467T283 486Q318 486 348 478T402 457T446 429T477 398L394
324Q377 344 348 359T283 374Q253 374 228 363T186 333T160 290T150 237T159 184T186 141T228 111T284 100Z" />
<glyph unicode="d" glyph-name="d" horiz-adv-x="587" d="M393 308Q378 334 350 354T278 374Q219 374 185 335T150 237T184 139T278 100Q322 100 350 120T393 166V308ZM513 0H402V62Q384 33 348 11T258 -12Q212 -12 171 6T98 58T47 137T28 237Q28 292 47 337T97
416T171 467T258 486Q309 486 342 467T393 424V756H513V0Z" />
<glyph unicode="e" glyph-name="e" horiz-adv-x="533" d="M385 281Q384 296 377 313T355 344T318 368T266 377Q237 377 216 368T181 345T159 314T150 281H385ZM266 486Q315 486 358 468T434 418T486 340T505 239V220Q505 208 504 194H150Q154 177 164 160T192
130T233 107T285 98Q315 98 350 109T413 146L473 56Q444 32 395 10T283 -12Q229 -12 183 7T102 60T48 140T28 239Q28 290 46 335T95 413T171 466T266 486Z" />
<glyph unicode="f" glyph-name="f" horiz-adv-x="371" d="M16 474H110V590Q110 639 125 673T166 728T221 758T282 768Q308 768 336 762T385 743L340 642Q332 648 319 652T293 656Q284 656 273 653T253 642T237 620T230 584V474H346V366H230V0H110V366H16V474Z" />
<glyph unicode="g" glyph-name="g" horiz-adv-x="573" d="M393 308Q378 334 350 354T278 374Q219 374 185 335T150 237T184 139T278 100Q301 100 319 106T351 121T376 143T393 166V308ZM393 49Q387 41 376 31T349 11T310 -5T258 -12Q213 -12 171 6T98 58T47 136T28
237T47 337T97 416T171 467T258 486Q312 486 347 463T402 412V474H513V-4Q513 -66 492 -111T436 -185T355 -228T261 -242Q222 -242 188 -234T124 -212T72 -183T33 -152L101 -60Q129 -87 169 -108T263 -130Q328 -130 360 -96T393 -8V49Z" />
<glyph unicode="h" glyph-name="h" horiz-adv-x="562" d="M329 486Q363 486 394 474T450 439T488 383T502 307V0H382V277Q382 302 375 320T354 351T325 368T291 374Q271 374 256 368T229 353T209 333T194 312V0H74V756H194V417Q212 443 245 464T329 486Z" />
<glyph unicode="i" glyph-name="i" horiz-adv-x="278" d="M60 594T60 627T83 683T139 706T195 683T218 627T195 571T139 548T83 571ZM79 474H199V0H79V474Z" />
<glyph unicode="j" glyph-name="j" horiz-adv-x="332" d="M114 594T114 627T137 683T193 706T249 683T272 627T249 571T193 548T137 571ZM8 -110Q27 -121 41 -125T69 -130Q77 -130 88 -128T110 -115T127 -86T134 -32V474H254V-43Q254 -101 237 -139T193 -200T136
-232T77 -242Q49 -242 20 -234T-35 -211L8 -110Z" />
<glyph unicode="k" glyph-name="k" d="M194 287L364 474H519L311 250L533 0H375L194 207V0H74V756H194V287Z" />
<glyph unicode="l" glyph-name="l" horiz-adv-x="268" d="M74 756H194V0H74V756Z" />
<glyph unicode="m" glyph-name="m" horiz-adv-x="836" d="M609 486Q645 486 676 474T729 438T763 382T776 305V0H656V274Q656 374 575 374Q535 374 513 354T478 313V0H358V274Q358 374 277 374Q237 374 215 354T180 313V0H60V474H172V405Q190 435 225 460T315
486Q362 486 401 465T459 403Q467 418 480 433T513 459T556 478T609 486Z" />
<glyph unicode="n" glyph-name="n" horiz-adv-x="548" d="M315 486Q349 486 380 474T436 439T474 383T488 307V0H368V277Q368 328 341 351T277 374Q239 374 216 354T180 313V0H60V474H172V405Q180 418 192 432T223 459T263 478T315 486Z" />
<glyph unicode="o" glyph-name="o" horiz-adv-x="562" d="M251 100T281 100T335 111T377 140T403 184T412 237T403 289T377 333T336 363T281 374T227 363T185 333T159 290T150 237T159 184T185 141T226 111ZM228 486T281 486T380 467T460 414T514 335T534 237T515
140T461 61T380 8T281 -12T182 7T102 60T48 139T28 237T47 334T101 414T182 467Z" />
<glyph unicode="p" glyph-name="p" horiz-adv-x="573" d="M180 166Q195 140 223 120T295 100Q354 100 388 139T423 237T389 335T295 374Q251 374 223 354T180 308V166ZM171 474V412Q191 441 226 463T316 486Q361 486 402 468T475 416T526 338T545 237T526 137T476
58T402 7T315 -12Q286 -12 264 -6T225 11T197 31T180 49V-230H60V474H171Z" />
<glyph unicode="q" glyph-name="q" horiz-adv-x="573" d="M393 308Q378 334 350 354T278 374Q219 374 185 335T150 237T184 139T278 100Q322 100 350 120T393 166V308ZM513 474V-230H393V49Q387 41 376 31T349 11T310 -5T258 -12Q213 -12 171 6T98 58T47 136T28
237T47 337T97 416T170 467T257 486Q311 486 346 464T402 412V474H513Z" />
<glyph unicode="r" glyph-name="r" horiz-adv-x="387" d="M305 486Q322 486 343 483T385 471L343 363Q333 368 319 371T288 374Q246 374 220 354T180 310V0H60V474H174V405Q191 436 224 461T305 486Z" />
<glyph unicode="s" glyph-name="s" horiz-adv-x="483" d="M97 161Q109 150 123 138T156 116T197 100T247 93Q279 93 304 104T330 139Q330 151 323 158T303 171T273 179T236 188Q203 195 172 206T115 235T75 276T60 333Q60 363 73 390T113 439T176 473T261 486Q324
486 369 467T442 428L382 340Q361 355 330 368T262 381Q230 381 204 369T178 335Q178 315 204 306T290 283Q321 276 350 266T402 240T437 201T451 143Q451 105 434 76T389 28T323 -2T245 -12Q207 -12 175 -5T115 15T67 42T30 74L97 161Z" />
<glyph unicode="t" glyph-name="t" horiz-adv-x="416" d="M22 474H115V615H235V474H378V366H235V175Q235 153 240 139T254 116T274 104T296 100Q311 100 324 105T347 117L391 19Q370 5 340 -3T278 -12Q243 -12 213 0T161 34T127 87T115 156V366H22V474Z" />
<glyph unicode="u" glyph-name="u" horiz-adv-x="548" d="M233 -12Q200 -12 169 0T113 35T75 91T60 167V474H180V200Q180 147 204 124T269 100Q307 100 330 117T368 158V474H488V0H376V69Q367 55 354 41T323 15T283 -4T233 -12Z" />
<glyph unicode="v" glyph-name="v" horiz-adv-x="506" d="M135 474L255 216L375 474H504L253 -24L2 474H135Z" />
<glyph unicode="w" glyph-name="w" horiz-adv-x="768" d="M138 474L236 231L339 474H440L540 231L642 474H764L535 -24L383 314L233 -24L4 474H138Z" />
<glyph unicode="x" glyph-name="x" horiz-adv-x="525" d="M29 474H170L267 328L362 474H499L334 245L509 0H366L259 162L152 0H16L192 245L29 474Z" />
<glyph unicode="y" glyph-name="y" horiz-adv-x="557" d="M76 -99Q96 -116 111 -123T144 -130Q173 -130 189 -114T220 -60L239 -11L8 474H141L301 127L426 474H555L325 -106Q310 -145 290 -171T247 -213T200 -235T151 -242Q109 -242 76 -227T20 -192L76 -99Z" />
<glyph unicode="z" glyph-name="z" horiz-adv-x="495" d="M469 474L234 112H458V0H30L265 362H47V474H469Z" />
<glyph unicode="{" glyph-name="braceleft" horiz-adv-x="350" d="M314 648Q299 648 287 646T265 636T251 614T246 574V388Q246 349 238 324T215 285T184 266T147 260V256Q166 255 183 250T215 231T237 192T246 128V-48Q246 -73 251 -87T265 -109T286 -119T314
-122V-230H260Q231 -230 207 -220T164 -193T136 -150T126 -95V113Q126 147 118 167T95 197T63 211T26 214V302Q45 302 63 305T95 318T117 349T126 403V621Q126 651 136 676T164 718T206 746T260 756H314V648Z" />
<glyph unicode="|" glyph-name="bar" horiz-adv-x="260" d="M72 740H188V-230H72V740Z" />
<glyph unicode="}" glyph-name="braceright" horiz-adv-x="350" d="M36 756H90Q119 756 143 746T186 719T214 676T224 621V403Q224 369 232 349T255 319T287 305T324 302V214Q305 214 287 211T255 198T233 167T224 113V-95Q224 -125 214 -150T186 -192T144 -220T90
-230H36V-122Q51 -122 63 -120T85 -110T99 -88T104 -48V128Q104 167 112 192T135 231T166 250T203 256V260Q184 261 167 266T135 285T113 324T104 388V574Q104 599 99 613T85 635T64 645T36 648V756Z" />
<glyph unicode="~" glyph-name="asciitilde" horiz-adv-x="489" d="M20 311Q42 365 81 394T167 424Q191 424 211 417T250 400L285 384Q301 377 318 377Q338 377 356 390T383 433L469 379Q450 331 412 299T322 267Q297 267 276 274T237 290L202 306Q186 314 170
314Q149 314 132 299T106 258L20 311Z" />
</font>
</defs>
</svg>
